<svg xmlns="http://www.w3.org/2000/svg" viewBox="0 0 100 100" fill="none" shape-rendering="auto" aria-hidden="true" width="128" height="128"><metadata xmlns:rdf="http://www.w3.org/1999/02/22-rdf-syntax-ns#" xmlns:xsi="http://www.w3.org/2001/XMLSchema-instance" xmlns:dc="http://purl.org/dc/elements/1.1/" xmlns:dcterms="http://purl.org/dc/terms/"><rdf:RDF><rdf:Description><dc:title>Thumbs</dc:title><dc:creator>DiceBear</dc:creator><dc:source xsi:type="dcterms:URI">https://www.dicebear.com</dc:source><dcterms:license xsi:type="dcterms:URI">https://creativecommons.org/publicdomain/zero/1.0/</dcterms:license><dc:rights>“Thumbs” (https://www.dicebear.com) by “DiceBear”, licensed under “CC0 1.0” (https://creativecommons.org/publicdomain/zero/1.0/)</dc:rights></rdf:Description></rdf:RDF></metadata><defs><g id="eyes-variant06-add43d4b"><path d="M16 8c0 3.31-1.34 6-3 6s-3-2.69-3-6 1.34-6 3-6 3 2.69 3 6" fill="#000000"/></g><g id="mouth-variant02-add43d4b"><path d="M15 14C1.9 14-.72 1.29.15.23S6.27 2.11 15 2.11 28.97-.83 29.85.23 28.1 14 15 14" fill="#000000"/></g><g id="head-default-add43d4b"><use transform="translate(-1.91915, -0.26987)" href="#eyes-variant06-add43d4b"/><use transform="matrix(-1 0 0 1 44 0) translate(-1.91915, -0.26987)" href="#eyes-variant06-add43d4b"/><use transform="translate(7 26) translate(0, 0.45591)" href="#mouth-variant02-add43d4b"/></g><g id="body-default-add43d4b"><path d="M45 0c24.85 0 45 19.4 45 43.33V130H0V43.33C0 19.4 20.15 0 45 0" fill="#69d2e7"/><use transform="translate(24 24) translate(5.33993, -1.46396) rotate(-13.4741, 22, 20)" href="#head-default-add43d4b"/></g><clipPath id="clip-add43d4b"><rect width="100" height="100" rx="0" ry="0"/></clipPath></defs><g clip-path="url(#clip-add43d4b)"><rect width="100" height="100" fill="#0a5b83"/><use transform="translate(5 10) translate(1.90548, -0.96915) rotate(19.1664, 45, 65)" href="#body-default-add43d4b"/></g></svg>