<svg xmlns="http://www.w3.org/2000/svg" viewBox="0 0 100 100" fill="none" shape-rendering="auto" aria-hidden="true" width="128" height="128"><metadata xmlns:rdf="http://www.w3.org/1999/02/22-rdf-syntax-ns#" xmlns:xsi="http://www.w3.org/2001/XMLSchema-instance" xmlns:dc="http://purl.org/dc/elements/1.1/" xmlns:dcterms="http://purl.org/dc/terms/"><rdf:RDF><rdf:Description><dc:title>Thumbs</dc:title><dc:creator>DiceBear</dc:creator><dc:source xsi:type="dcterms:URI">https://www.dicebear.com</dc:source><dcterms:license xsi:type="dcterms:URI">https://creativecommons.org/publicdomain/zero/1.0/</dcterms:license><dc:rights>“Thumbs” (https://www.dicebear.com) by “DiceBear”, licensed under “CC0 1.0” (https://creativecommons.org/publicdomain/zero/1.0/)</dc:rights></rdf:Description></rdf:RDF></metadata><defs><g id="eyes-variant06-ebbc8eb4"><path d="M16 8c0 3.31-1.34 6-3 6s-3-2.69-3-6 1.34-6 3-6 3 2.69 3 6" fill="#ffffff"/></g><g id="mouth-variant01-ebbc8eb4"><path d="M15 11C4.52 11 2.42 2.82 3.12 2.14S8.02 3.5 15 3.5s11.18-2.04 11.88-1.36S25.48 11 15 11" fill="#ffffff"/></g><g id="head-default-ebbc8eb4"><use transform="translate(-2.52878, -1.11024)" href="#eyes-variant06-ebbc8eb4"/><use transform="matrix(-1 0 0 1 44 0) translate(-2.52878, -1.11024)" href="#eyes-variant06-ebbc8eb4"/><use transform="translate(7 26) translate(0, -1.32199)" href="#mouth-variant01-ebbc8eb4"/></g><g id="body-default-ebbc8eb4"><path d="M45 0c24.85 0 45 19.4 45 43.33V130H0V43.33C0 19.4 20.15 0 45 0" fill="#0a5b83"/><use transform="translate(24 24) translate(-3.61328, -2.42064) rotate(8.0581, 22, 20)" href="#head-default-ebbc8eb4"/></g><clipPath id="clip-ebbc8eb4"><rect width="100" height="100" rx="0" ry="0"/></clipPath></defs><g clip-path="url(#clip-ebbc8eb4)"><rect width="100" height="100" fill="#f88c49"/><use transform="translate(5 10) translate(3.72339, -0.02691) rotate(4.8595, 45, 65)" href="#body-default-ebbc8eb4"/></g></svg>