<svg xmlns="http://www.w3.org/2000/svg" viewBox="0 0 100 100" fill="none" shape-rendering="auto" aria-hidden="true" width="128" height="128"><metadata xmlns:rdf="http://www.w3.org/1999/02/22-rdf-syntax-ns#" xmlns:xsi="http://www.w3.org/2001/XMLSchema-instance" xmlns:dc="http://purl.org/dc/elements/1.1/" xmlns:dcterms="http://purl.org/dc/terms/"><rdf:RDF><rdf:Description><dc:title>Thumbs</dc:title><dc:creator>DiceBear</dc:creator><dc:source xsi:type="dcterms:URI">https://www.dicebear.com</dc:source><dcterms:license xsi:type="dcterms:URI">https://creativecommons.org/publicdomain/zero/1.0/</dcterms:license><dc:rights>“Thumbs” (https://www.dicebear.com) by “DiceBear”, licensed under “CC0 1.0” (https://creativecommons.org/publicdomain/zero/1.0/)</dc:rights></rdf:Description></rdf:RDF></metadata><defs><g id="eyes-variant01-88988535"><path d="M.25 8.12C1.66 11.86 12 16 12 16s5.17-9.58 3.76-13.32c0 0-1.41-3.74-5.3-2.38-3.87 1.36-2.7 4.48-2.7 4.48S6.6 1.66 2.73 3.02.25 8.12.25 8.12" fill="#ffffff"/></g><g id="mouth-variant05-88988535"><path d="M15.2 3.84c0-.67-4.2-2-4.2-2.67s7 .67 7 2.67-4.2 2.66-4.2 2.66 4.2.67 4.2 2.66-7 3.33-7 2.67 4.2-2 4.2-2.67-3.5-1.33-3.5-2.66 3.5-2 3.5-2.66" fill="#ffffff"/></g><g id="head-default-88988535"><use transform="translate(0.00726, -0.10707)" href="#eyes-variant01-88988535"/><use transform="matrix(-1 0 0 1 44 0) translate(0.00726, -0.10707)" href="#eyes-variant01-88988535"/><use transform="translate(7 26) translate(0, -0.28419)" href="#mouth-variant05-88988535"/></g><g id="body-default-88988535"><path d="M45 0c24.85 0 45 19.4 45 43.33V130H0V43.33C0 19.4 20.15 0 45 0" fill="#1c799f"/><use transform="translate(24 24) translate(3.7143, 5.86264) rotate(9.4568, 22, 20)" href="#head-default-88988535"/></g><clipPath id="clip-88988535"><rect width="100" height="100" rx="0" ry="0"/></clipPath></defs><g clip-path="url(#clip-88988535)"><rect width="100" height="100" fill="#69d2e7"/><use transform="translate(5 10) translate(-0.26208, 0.25181) rotate(-2.6905, 45, 65)" href="#body-default-88988535"/></g></svg>