<svg xmlns="http://www.w3.org/2000/svg" viewBox="0 0 100 100" fill="none" shape-rendering="auto" aria-hidden="true" width="128" height="128"><metadata xmlns:rdf="http://www.w3.org/1999/02/22-rdf-syntax-ns#" xmlns:xsi="http://www.w3.org/2001/XMLSchema-instance" xmlns:dc="http://purl.org/dc/elements/1.1/" xmlns:dcterms="http://purl.org/dc/terms/"><rdf:RDF><rdf:Description><dc:title>Thumbs</dc:title><dc:creator>DiceBear</dc:creator><dc:source xsi:type="dcterms:URI">https://www.dicebear.com</dc:source><dcterms:license xsi:type="dcterms:URI">https://creativecommons.org/publicdomain/zero/1.0/</dcterms:license><dc:rights>“Thumbs” (https://www.dicebear.com) by “DiceBear”, licensed under “CC0 1.0” (https://creativecommons.org/publicdomain/zero/1.0/)</dc:rights></rdf:Description></rdf:RDF></metadata><defs><g id="eyes-variant04-571b3657"><path d="M8 8.36S8 4 12 4s4 4.36 4 4.36v2.91s0 .73-.67.73c-.66 0-.66-2.9-3.33-2.9S9.33 12 8.67 12 8 11.27 8 11.27z" fill="#000000"/></g><g id="mouth-variant03-571b3657"><path d="M15.5 10c-5.07 0-9.3-5.23-8.37-5.88s3.45 2.15 8.37 2.15 7.44-2.88 8.37-2.15S20.57 10 15.5 10" fill="#000000"/></g><g id="head-default-571b3657"><use transform="translate(0.01712, 1.17808)" href="#eyes-variant04-571b3657"/><use transform="matrix(-1 0 0 1 44 0) translate(0.01712, 1.17808)" href="#eyes-variant04-571b3657"/><use transform="translate(7 26) translate(0, -0.36477)" href="#mouth-variant03-571b3657"/></g><g id="body-default-571b3657"><path d="M45 0c24.85 0 45 19.4 45 43.33V130H0V43.33C0 19.4 20.15 0 45 0" fill="#69d2e7"/><use transform="translate(24 24) translate(4.81967, -2.84432) rotate(-3.3882, 22, 20)" href="#head-default-571b3657"/></g><clipPath id="clip-571b3657"><rect width="100" height="100" rx="0" ry="0"/></clipPath></defs><g clip-path="url(#clip-571b3657)"><rect width="100" height="100" fill="#f88c49"/><use transform="translate(5 10) translate(-3.1248, -4.59641) rotate(-8.1265, 45, 65)" href="#body-default-571b3657"/></g></svg>